<svg width="19" height="19" viewBox="0 0 19 19" fill="none" xmlns="http://www.w3.org/2000/svg">
<g id="alternate_email">
<mask id="mask0_62_3713" style="mask-type:alpha" maskUnits="userSpaceOnUse" x="0" y="0" width="19" height="19">
<rect id="Bounding box" width="19" height="19" fill="#D9D9D9"/>
</mask>
<g mask="url(#mask0_62_3713)">
<path id="alternate_email_2" d="M9.49974 17.4167C8.41779 17.4167 7.39522 17.2088 6.43203 16.7932C5.46883 16.3776 4.62769 15.8102 3.90859 15.0911C3.18949 14.372 2.62213 13.5309 2.20651 12.5677C1.79088 11.6045 1.58307 10.5819 1.58307 9.5C1.58307 8.40486 1.79088 7.37899 2.20651 6.42239C2.62213 5.46579 3.18949 4.62795 3.90859 3.90885C4.62769 3.18975 5.46883 2.62239 6.43203 2.20677C7.39522 1.79114 8.41779 1.58333 9.49974 1.58333C10.5949 1.58333 11.6207 1.79114 12.5773 2.20677C13.5339 2.62239 14.3718 3.18975 15.0909 3.90885C15.81 4.62795 16.3773 5.46579 16.793 6.42239C17.2086 7.37899 17.4164 8.40486 17.4164 9.5V10.6479C17.4164 11.4264 17.1492 12.0894 16.6148 12.637C16.0805 13.1845 15.424 13.4583 14.6456 13.4583C14.1706 13.4583 13.7286 13.3528 13.3195 13.1417C12.9105 12.9306 12.574 12.6535 12.3102 12.3104C11.9539 12.6667 11.535 12.947 11.0534 13.1516C10.5718 13.3561 10.0539 13.4583 9.49974 13.4583C8.4046 13.4583 7.47109 13.0724 6.69921 12.3005C5.92734 11.5286 5.5414 10.5951 5.5414 9.5C5.5414 8.40486 5.92734 7.47135 6.69921 6.69947C7.47109 5.9276 8.4046 5.54166 9.49974 5.54166C10.5949 5.54166 11.5284 5.9276 12.3003 6.69947C13.0721 7.47135 13.4581 8.40486 13.4581 9.5V10.6479C13.4581 11.0306 13.5768 11.3307 13.8143 11.5484C14.0518 11.7661 14.3289 11.875 14.6456 11.875C14.9622 11.875 15.2393 11.7661 15.4768 11.5484C15.7143 11.3307 15.8331 11.0306 15.8331 10.6479V9.5C15.8331 7.77152 15.2096 6.28385 13.9628 5.03697C12.7159 3.7901 11.2282 3.16666 9.49974 3.16666C7.77126 3.16666 6.28359 3.7901 5.03672 5.03697C3.78984 6.28385 3.1664 7.77152 3.1664 9.5C3.1664 11.2285 3.78984 12.7161 5.03672 13.963C6.28359 15.2099 7.77126 15.8333 9.49974 15.8333H13.4581V17.4167H9.49974ZM9.49974 11.875C10.1595 11.875 10.7202 11.6441 11.182 11.1823C11.6438 10.7205 11.8747 10.1597 11.8747 9.5C11.8747 8.84027 11.6438 8.27951 11.182 7.8177C10.7202 7.3559 10.1595 7.125 9.49974 7.125C8.84001 7.125 8.27925 7.3559 7.81744 7.8177C7.35564 8.27951 7.12474 8.84027 7.12474 9.5C7.12474 10.1597 7.35564 10.7205 7.81744 11.1823C8.27925 11.6441 8.84001 11.875 9.49974 11.875Z" fill="#1A2D2C"/>
</g>
</g>
</svg>
