<svg width="19" height="19" viewBox="0 0 19 19" fill="none" xmlns="http://www.w3.org/2000/svg">
<g id="fluent:eye-12-filled">
<path id="Vector" d="M3.12549 10.5434C3.05461 10.7369 2.91108 10.8951 2.72539 10.9845C2.53971 11.0739 2.32649 11.0873 2.13106 11.0219C1.93563 10.9566 1.77338 10.8176 1.67879 10.6345C1.5842 10.4515 1.56472 10.2387 1.62449 10.0415C1.65264 9.95432 1.68541 9.86712 1.72266 9.78342C1.78599 9.633 1.87941 9.42558 2.00766 9.18017C2.26891 8.68933 2.67582 8.03542 3.27591 7.3815C4.48716 6.05942 6.47107 4.75 9.49999 4.75C12.5289 4.75 14.5128 6.05942 15.7241 7.3815C16.3706 8.0908 16.8949 8.90246 17.2757 9.78342L17.3486 9.96233C17.3533 9.975 17.3692 10.0573 17.385 10.1365L17.4167 10.2917C17.4167 10.2917 17.5497 10.8189 16.8752 11.0422C16.6765 11.1085 16.4597 11.0934 16.2721 11.0002C16.0846 10.9071 15.9416 10.7434 15.8745 10.545V10.5403L15.865 10.5149C15.7854 10.3115 15.6945 10.1128 15.5927 9.91958C15.3111 9.3884 14.9632 8.89519 14.5572 8.45183C13.5913 7.39892 12.0127 6.33333 9.49999 6.33333C6.98724 6.33333 5.40866 7.39892 4.44282 8.45183C3.91991 9.02511 3.49467 9.68035 3.18407 10.3914C3.16746 10.4323 3.15163 10.4735 3.13657 10.5149L3.12549 10.5434ZM6.33332 11.0833C6.33332 10.2435 6.66695 9.43803 7.26082 8.84416C7.85468 8.2503 8.66014 7.91667 9.49999 7.91667C10.3398 7.91667 11.1453 8.2503 11.7392 8.84416C12.333 9.43803 12.6667 10.2435 12.6667 11.0833C12.6667 11.9232 12.333 12.7286 11.7392 13.3225C11.1453 13.9164 10.3398 14.25 9.49999 14.25C8.66014 14.25 7.85468 13.9164 7.26082 13.3225C6.66695 12.7286 6.33332 11.9232 6.33332 11.0833Z" fill="#758E8B"/>
</g>
</svg>
