<svg width="70" height="56" viewBox="0 0 70 56" fill="none" xmlns="http://www.w3.org/2000/svg">
<g id="Frame 22">
<path id="Union" fill-rule="evenodd" clip-rule="evenodd" d="M27.0922 0.327402C25.3796 0.451839 24.0537 1.87759 24.0537 3.59474C24.0537 4.02383 23.7538 4.39366 23.335 4.4872C21.1338 4.97893 19.5625 5.46917 17.943 7.03015L0.665283 24.0092C3.2104 28.2933 6.59301 32.0203 10.611 34.9676L10.7261 35.052L15.7207 30.5016V52.6044C15.7207 53.649 16.5245 54.5185 17.5666 54.5916C29.1664 55.4045 40.8335 55.4059 52.4333 54.5918C53.4752 54.5186 54.2789 53.6491 54.2789 52.6047V30.5013L59.2738 35.052L59.9758 34.5784C63.9397 31.9043 67.1599 28.2677 69.3346 24.0092L51.7861 7.03015C49.9952 5.45549 48.8545 4.9975 46.8745 4.53648C46.3341 4.41067 45.9458 3.93402 45.9458 3.37917C45.9458 1.78129 44.7164 0.452383 43.1234 0.328249C37.97 -0.0733139 32.7937 -0.0868598 27.6383 0.287727L27.0922 0.327402Z" fill="#1A2D2C"/>
<g id="10">
<path d="M30.6194 12.4711V27.0166H28.858V14.3177H28.7728L25.2217 16.6757V14.8859L28.858 12.4711H30.6194Z" fill="white"/>
<path d="M39.547 27.2154C38.4769 27.2154 37.5654 26.9242 36.8126 26.3419C36.0597 25.7547 35.4845 24.9048 35.0867 23.7921C34.689 22.6747 34.4901 21.3253 34.4901 19.7438C34.4901 18.1719 34.689 16.8295 35.0867 15.7168C35.4892 14.5994 36.0669 13.7472 36.8197 13.16C37.5773 12.5682 38.4864 12.2722 39.547 12.2722C40.6076 12.2722 41.5143 12.5682 42.2671 13.16C43.0247 13.7472 43.6024 14.5994 44.0001 15.7168C44.4026 16.8295 44.6038 18.1719 44.6038 19.7438C44.6038 21.3253 44.4049 22.6747 44.0072 23.7921C43.6095 24.9048 43.0342 25.7547 42.2813 26.3419C41.5285 26.9242 40.617 27.2154 39.547 27.2154ZM39.547 25.6529C40.6076 25.6529 41.4314 25.1416 42.0186 24.1188C42.6057 23.0961 42.8992 21.6378 42.8992 19.7438C42.8992 18.4844 42.7643 17.4119 42.4944 16.5265C42.2293 15.6411 41.8457 14.9664 41.3438 14.5024C40.8467 14.0383 40.2477 13.8063 39.547 13.8063C38.4958 13.8063 37.6743 14.3248 37.0825 15.3617C36.4906 16.3939 36.1947 17.8546 36.1947 19.7438C36.1947 21.0033 36.3273 22.0734 36.5924 22.9541C36.8576 23.8347 37.2387 24.5047 37.7359 24.964C38.2378 25.4233 38.8415 25.6529 39.547 25.6529Z" fill="white"/>
</g>
</g>
</svg>
