<svg width="56" height="56" viewBox="0 0 56 56" fill="none" xmlns="http://www.w3.org/2000/svg">
<g id="mingcute:football-fill" clip-path="url(#clip0_35_1263)">
<circle id="Ellipse 3" cx="28.0002" cy="27.6092" r="22.9167" fill="#EDF6F5"/>
<g id="Group">
<path id="Vector" d="M27.9999 4.69252C40.6568 4.69252 50.9166 14.9523 50.9166 27.6092C50.9166 40.2661 40.6568 50.5258 27.9999 50.5258C15.343 50.5258 5.08325 40.2661 5.08325 27.6092C5.08325 14.9523 15.343 4.69252 27.9999 4.69252ZM35.8099 11.0175L29.3474 15.7131C28.9966 15.9682 28.5806 16.1185 28.1477 16.1465C27.7149 16.1744 27.283 16.079 26.9022 15.8713L26.6524 15.7131L20.1899 11.0175C18.3335 11.8939 16.6371 13.0752 15.1712 14.5123L14.6349 15.06L17.103 22.6523C17.2372 23.0647 17.2515 23.5068 17.1445 23.927C17.0374 24.3473 16.8132 24.7285 16.498 25.0265L16.2689 25.2144L9.80867 29.9077C10.0699 31.9931 10.6795 33.9663 11.5801 35.7721L11.9308 36.4413H19.9172C20.3556 36.441 20.7849 36.5666 21.1542 36.803C21.5234 37.0394 21.8171 37.3767 22.0003 37.775L22.0966 38.0248L24.567 45.6217C26.5549 45.9981 28.5911 46.0445 30.5941 45.7592L31.4351 45.6217L33.9032 38.0248C34.0387 37.6082 34.2907 37.2391 34.6294 36.9613C34.9682 36.6835 35.3794 36.5086 35.8145 36.4573L36.0826 36.4413H44.0691C45.0576 34.6491 45.7364 32.7028 46.0766 30.6846L46.1912 29.9077L39.7287 25.2144C39.3776 24.9594 39.1062 24.6099 38.9459 24.2066C38.7857 23.8034 38.7432 23.3629 38.8235 22.9365L38.8968 22.6523L41.3649 15.06C39.9614 13.5647 38.3178 12.3146 36.502 11.3613L35.8099 11.0175ZM26.6524 18.8802C27.0033 18.6252 27.4193 18.4749 27.8521 18.4469C28.285 18.4189 28.7169 18.5144 29.0976 18.7221L29.3474 18.8802L35.8855 23.6309C36.2362 23.8857 36.5074 24.2348 36.6676 24.6376C36.8279 25.0404 36.8705 25.4804 36.7908 25.9065L36.7174 26.1929L34.2195 33.8792C34.0841 34.2958 33.8321 34.6649 33.4933 34.9427C33.1546 35.2205 32.7433 35.3954 32.3083 35.4467L32.0401 35.4627H23.9597C23.5213 35.463 23.092 35.3374 22.7227 35.101C22.3535 34.8646 22.0598 34.5273 21.8766 34.129L21.7803 33.8792L19.2824 26.1929C19.1483 25.7805 19.1339 25.3385 19.241 24.9182C19.3481 24.4979 19.5723 24.1167 19.8874 23.8188L20.1166 23.6309L26.6524 18.8802Z" fill="#1A2D2C"/>
</g>
</g>
<defs>
<clipPath id="clip0_35_1263">
<rect width="55" height="55" fill="white" transform="translate(0.5 0.109192)"/>
</clipPath>
</defs>
</svg>
