<svg width="66" height="106" viewBox="0 0 66 106" fill="none" xmlns="http://www.w3.org/2000/svg">
<g id="Page_1" clip-path="url(#clip0_22_1173)">
<path id="Vector" d="M33 0C42.0805 0 50.3736 6.04838 56.3781 15.765C62.3826 25.4817 66 38.5477 66 53C66 67.4523 62.3087 80.6532 56.3781 90.235C50.4474 99.8167 42.0805 106 33 106C23.9195 106 15.6264 99.9516 9.62192 90.235C3.61745 80.5183 0 67.4523 0 53C0 38.5477 3.69127 25.359 9.62192 15.765C15.5526 6.17106 23.9195 0 33 0Z" fill="#231F20"/>
<path id="Vector_2" d="M33.0001 1.77893C24.5717 1.77893 16.82 7.49606 11.1354 16.6974C5.45084 25.8988 1.78418 38.8789 1.78418 53C1.78418 67.1211 5.37702 79.9907 11.1354 89.3025C16.8938 98.6143 24.5717 104.221 33.0001 104.221C41.4285 104.221 49.1801 98.5039 54.8647 89.3025C60.5493 80.1011 64.216 67.1211 64.216 53C64.216 38.8789 60.6231 26.0093 54.8647 16.6974C49.1063 7.38564 41.4285 1.77893 33.0001 1.77893Z" fill="#FB090B"/>
<path id="Vector_3" d="M33 3.52107C41.0593 3.52107 48.4049 9.16459 53.708 18.2433C59.0112 27.322 62.198 39.5046 62.198 53C62.198 66.4954 58.925 78.7639 53.708 87.7445C48.491 96.725 41.0593 102.467 33 102.467C24.9407 102.467 17.5951 96.8232 12.2919 87.7445C6.9888 78.6657 3.802 66.4954 3.802 53C3.802 39.5046 7.06263 27.2361 12.2919 18.2556C17.5212 9.27501 24.9407 3.53334 33 3.53334V3.52107Z" fill="#231F20"/>
<path id="Vector_4" d="M33.0001 5.3C25.6175 5.3 18.8132 10.6123 13.83 19.1512C8.8468 27.69 5.58618 39.8236 5.58618 53C5.58618 66.1764 8.76067 78.1627 13.83 86.8488C18.8994 95.535 25.6175 100.7 33.0001 100.7C40.3826 100.7 47.1869 95.3877 52.1701 86.8488C57.1533 78.3099 60.4139 66.1764 60.4139 53C60.4139 39.8236 57.2394 27.8373 52.1701 19.1512C47.1007 10.465 40.3826 5.3 33.0001 5.3Z" fill="white"/>
<path id="Vector_5" d="M33 23.8868C40.7288 23.9351 48.1274 27.0178 53.5926 32.4672C59.0578 37.9165 62.1496 45.2936 62.198 53C62.1496 60.7064 59.0578 68.0835 53.5926 73.5328C48.1274 78.9822 40.7288 82.0649 33 82.1132H32.1018C24.5311 81.8319 17.3616 78.647 12.0889 73.2227C6.81621 67.7985 3.84749 60.5538 3.802 53C3.8504 45.2936 6.94214 37.9165 12.4074 32.4672C17.8726 27.0178 25.2711 23.9351 33 23.8868Z" fill="#231F20"/>
<path id="Vector_6" d="M32.9999 80.3711V25.6289C31.3105 25.6306 29.6252 25.7949 27.9674 26.1197V79.8803C29.6252 80.2051 31.3105 80.3694 32.9999 80.3711ZM22.9719 27.6164C21.1835 28.3268 19.4793 29.2319 17.8903 30.3155V75.709C19.4824 76.7841 21.1861 77.6849 22.9719 78.3958V27.5919V27.6164ZM12.8332 34.5972C10.7016 36.9172 8.97924 39.5803 7.73926 42.4736V63.5509C8.98167 66.4356 10.7039 69.0902 12.8332 71.4028V34.5972Z" fill="#FB090B"/>
<path id="Vector_7" d="M34.7227 25.6903V80.3097C41.6697 79.8271 48.1773 76.7448 52.9416 71.6804C57.7059 66.616 60.3749 59.9436 60.4139 53C60.3692 46.0581 57.6982 39.3889 52.9351 34.3257C48.172 29.2625 41.6677 26.1785 34.7227 25.6903Z" fill="white"/>
<path id="Vector_8" d="M34.7227 48.4729V57.4412H41.7238V79.5245C44.9106 78.1627 47.7652 77.1813 50.4844 74.9116V57.4412H60.0694C60.317 55.9737 60.4404 54.4881 60.4385 53C60.4471 51.4832 60.3236 49.9685 60.0694 48.4729H50.4844V32.0208C47.8892 29.8654 44.92 28.2022 41.7238 27.1134V48.4729H34.7227Z" fill="#231F20"/>
<path id="Vector_9" fill-rule="evenodd" clip-rule="evenodd" d="M48.6757 30.6345V50.4236H60.2909C60.3754 51.2798 60.4165 52.1397 60.4139 53C60.4139 53.8343 60.4139 54.6685 60.3032 55.4537H48.6757V75.3287C47.0935 76.4531 45.3938 77.4033 43.6063 78.1627V55.4537H34.7227V50.4236H43.6063V27.8005C45.3938 28.5599 47.0935 29.5101 48.6757 30.6345Z" fill="#FB090B"/>
<path id="Vector_10" d="M48.2696 25.8866L46.1532 19.5315L44.1969 23.9481C43.8646 23.8132 43.6309 23.6905 43.2863 23.5678L41.613 16.6606L40.0011 22.66C39.472 22.525 38.9183 22.4146 38.377 22.3164L41.2069 11.5815L42.868 12.2931L44.2584 18.6481L45.7226 14.9676L47.1007 15.8019L50.5212 27.3588C49.783 26.8558 49.0447 26.3896 48.2696 25.9479V25.8866Z" fill="#231F20"/>
<path id="Vector_11" d="M28.4967 15.6669V15.8755C28.6813 20.3657 34.2797 21.6294 37.0359 19.0653L38.4017 20.4148C33.3815 24.3775 26.3435 21.2 26.3435 15.765C26.3435 10.3301 33.2339 7.07894 38.254 11.0417L36.8882 12.4035C34.1321 9.82709 28.6813 11.1766 28.4967 15.6669Z" fill="#231F20"/>
<path id="Vector_12" d="M23.0459 14.3419L20.4743 19.875L24.0303 18.4396L23.0459 14.3174V14.3419ZM25.1869 22.844L24.5101 20.3044L19.367 22.39L17.5705 26.0093C16.5462 26.6036 15.5562 27.2548 14.6052 27.96L14.5437 27.7759L21.7786 12.9556L24.3256 11.6674L27.4016 22.3287C26.6511 22.4637 25.9128 22.6354 25.1869 22.8194V22.844Z" fill="#231F20"/>
<path id="Vector_13" d="M44.763 84.5914C44.6594 84.1756 44.4162 83.8076 44.0739 83.5486C43.9015 83.4161 43.6986 83.3288 43.4837 83.2945C43.2688 83.2602 43.0487 83.2801 42.8435 83.3523C42.6473 83.4007 42.4661 83.4965 42.3159 83.6313C42.1657 83.7662 42.0511 83.9358 41.9822 84.1252C41.8611 84.5253 41.8611 84.9521 41.9822 85.3521C42.0803 85.7506 42.3154 86.1023 42.6466 86.3458C42.8155 86.4426 43.0022 86.5044 43.1955 86.5277C43.3888 86.551 43.5849 86.5353 43.772 86.4815C43.9592 86.4277 44.1335 86.3369 44.2847 86.2145C44.4359 86.0922 44.5609 85.9407 44.6522 85.7692C44.7897 85.397 44.7897 84.9882 44.6522 84.616L44.763 84.5914ZM46.99 85.3521C47.3586 86.4555 47.4266 87.6368 47.1869 88.775C47.0475 89.3294 46.7562 89.8342 46.3455 90.2328C45.9348 90.6315 45.4209 90.9084 44.8614 91.0324C44.21 91.2708 43.4949 91.2708 42.8435 91.0324C42.5472 90.8919 42.2842 90.6902 42.072 90.4406C41.8599 90.191 41.7035 89.8992 41.6131 89.5847L43.3726 89.0817C43.4193 89.208 43.4919 89.3231 43.5858 89.4199C43.6797 89.5166 43.7927 89.5928 43.9177 89.6436C44.0427 89.6944 44.177 89.7187 44.3119 89.7149C44.4468 89.7111 44.5795 89.6793 44.7014 89.6215C45.575 89.3762 45.8211 88.4806 45.452 86.9347C45.2927 87.2068 45.0797 87.4438 44.8259 87.6314C44.5721 87.8191 44.2828 87.9536 43.9755 88.0266C43.5849 88.1504 43.1725 88.1904 42.7653 88.1438C42.3581 88.0973 41.9654 87.9654 41.6131 87.7567C41.2725 87.5521 40.9763 87.2817 40.7418 86.9615C40.5072 86.6413 40.3391 86.2777 40.2473 85.8919C40.1164 85.4891 40.0686 85.0641 40.1067 84.6425C40.1447 84.2208 40.2679 83.8112 40.4688 83.4382C40.6776 83.0709 40.9603 82.7506 41.299 82.4972C41.6378 82.2439 42.0254 82.063 42.4375 81.966C42.9416 81.7864 43.4854 81.7475 44.0102 81.8535C44.5349 81.9594 45.0207 82.2062 45.4151 82.5671C46.1747 83.3398 46.7031 84.3086 46.9408 85.3643L46.99 85.3521Z" fill="#231F20"/>
<path id="Vector_14" d="M36.6914 86.5912C36.7035 86.1455 36.5551 85.7103 36.273 85.3643C36.1357 85.2058 35.9626 85.082 35.7679 85.0031C35.5733 84.9242 35.3627 84.8924 35.1533 84.9104C34.9517 84.9148 34.7541 84.9686 34.5782 85.067C34.4023 85.1654 34.2533 85.3054 34.1444 85.4748C33.9393 85.827 33.8531 86.2355 33.8983 86.6403C33.8944 87.0527 34.0384 87.453 34.3044 87.769C34.4426 87.905 34.6088 88.0094 34.7915 88.0751C34.9742 88.1408 35.169 88.1661 35.3625 88.1493C35.5628 88.1557 35.7617 88.1133 35.9419 88.0256C36.122 87.938 36.2779 87.8077 36.3961 87.6463C36.6301 87.3283 36.7355 86.9341 36.6914 86.5421V86.5912ZM38.697 87.8181C38.8018 88.9749 38.5981 90.1389 38.1064 91.1919C37.8438 91.6999 37.4446 92.125 36.9535 92.4197C36.4624 92.7144 35.8987 92.867 35.3256 92.8604C34.652 92.9234 33.9774 92.7498 33.4184 92.3697C33.1469 92.171 32.9224 91.9153 32.7608 91.6206C32.5992 91.326 32.5045 90.9995 32.4833 90.6643L34.3167 90.5785C34.4151 91.1551 34.7965 91.425 35.5471 91.3882C36.4453 91.3882 36.9005 90.5417 36.8882 88.9345C36.6726 89.1646 36.4115 89.3477 36.1214 89.4723C35.8313 89.5969 35.5184 89.6602 35.2026 89.6583C34.8078 89.7015 34.4083 89.6627 34.0293 89.5445C33.6502 89.4262 33.2998 89.2311 33.0001 88.9713C32.711 88.6982 32.4811 88.3691 32.3245 88.004C32.1679 87.639 32.088 87.2459 32.0896 86.8488C32.0427 86.4256 32.0862 85.9972 32.2172 85.5919C32.3481 85.1866 32.5636 84.8135 32.8495 84.4972C33.1354 84.1809 33.4852 83.9284 33.8759 83.7565C34.2666 83.5845 34.6894 83.497 35.1164 83.4995C35.6443 83.4353 36.1797 83.5155 36.6652 83.7316C37.1508 83.9478 37.5682 84.2917 37.8726 84.7264C38.4432 85.6522 38.7416 86.7192 38.7339 87.8058L38.697 87.8181Z" fill="#231F20"/>
<path id="Vector_15" d="M28.3244 89.8056C28.36 89.6239 28.3587 89.4369 28.3207 89.2557C28.2826 89.0745 28.2086 88.9027 28.1029 88.7505C27.8695 88.4545 27.5296 88.2609 27.1555 88.2106C26.7811 88.1368 26.3926 88.2116 26.0727 88.4192C25.9202 88.5275 25.7922 88.6664 25.6969 88.827C25.6015 88.9876 25.5409 89.1663 25.519 89.3516C25.4569 89.5407 25.4418 89.7421 25.4752 89.9383C25.5085 90.1345 25.5892 90.3197 25.7103 90.4779C25.8314 90.6361 25.9893 90.7625 26.1703 90.8463C26.3513 90.9301 26.5501 90.9687 26.7494 90.9588C27.1222 91.0389 27.5116 90.9683 27.8322 90.7625C27.974 90.6437 28.0906 90.4979 28.1751 90.3335C28.2596 90.1692 28.3104 89.9897 28.3244 89.8056ZM28.8288 85.9287C28.8636 85.7774 28.8605 85.6199 28.8197 85.4701C28.7789 85.3203 28.7018 85.1829 28.5951 85.0699C28.3609 84.8324 28.053 84.681 27.7215 84.6405C27.4035 84.5763 27.073 84.624 26.7863 84.7755C26.6522 84.8512 26.5378 84.9572 26.4523 85.0851C26.3669 85.2129 26.3127 85.359 26.2942 85.5116C26.1711 86.2395 26.5279 86.6485 27.3646 86.7384C28.2259 86.8856 28.7058 86.5912 28.8288 85.8674V85.9287ZM30.1454 90.1736C30.101 90.5825 29.9595 90.9749 29.7327 91.3184C29.5059 91.6619 29.2003 91.9466 28.8411 92.1488C28.0986 92.5169 27.2534 92.6249 26.4418 92.4556C25.6175 92.358 24.8503 91.9863 24.264 91.4005C23.9908 91.0919 23.7957 90.7226 23.6951 90.3234C23.5945 89.9243 23.5913 89.5069 23.6857 89.1062C23.7369 88.6529 23.9239 88.2254 24.2224 87.8796C24.5209 87.5339 24.917 87.2858 25.359 87.1678C25.0527 86.9428 24.8178 86.6345 24.6825 86.2798C24.5473 85.9252 24.5173 85.5392 24.5962 85.1681C24.6392 84.7999 24.7745 84.4485 24.9895 84.1462C25.2045 83.8439 25.4924 83.6004 25.8266 83.4382C26.5026 83.124 27.2627 83.0379 27.9921 83.1928C28.7354 83.2803 29.4325 83.5978 29.9854 84.1007C30.2379 84.3665 30.4206 84.6904 30.5172 85.0435C30.6138 85.3967 30.6213 85.7682 30.5391 86.125C30.496 86.5053 30.341 86.8643 30.0935 87.1569C29.8461 87.4494 29.5174 87.6624 29.1487 87.769C29.5409 88.0136 29.8459 88.3752 30.0204 88.8025C30.1949 89.2297 30.23 89.7008 30.1208 90.1491L30.1454 90.1736Z" fill="#231F20"/>
<path id="Vector_16" d="M20.3512 90.7134L18.5794 90.1245L20.5481 84.3215L18.4194 83.6713L18.8378 82.4444C19.3838 82.667 19.9709 82.7715 20.5604 82.7512C20.8379 82.7017 21.0977 82.5805 21.3136 82.3997C21.5295 82.2188 21.694 81.9847 21.7908 81.7206L23.2181 82.1991L20.3143 90.787L20.3512 90.7134Z" fill="#231F20"/>
</g>
<defs>
<clipPath id="clip0_22_1173">
<rect width="66" height="106" fill="white"/>
</clipPath>
</defs>
</svg>
