<svg width="30" height="41" viewBox="0 0 30 41" fill="none" xmlns="http://www.w3.org/2000/svg">
<path id="Vector" d="M23.627 30.3644C23.627 28.3707 22.9964 26.845 21.7353 25.7872C20.4741 24.7295 18.203 23.6963 14.9219 22.6877C11.6288 21.685 9.10644 20.6301 7.35492 19.5232C5.77146 18.5763 4.43326 17.2866 3.44428 15.7542C2.5626 14.2795 2.11346 12.5973 2.14581 10.891C2.11143 9.39981 2.42638 7.92064 3.06678 6.56589C3.70717 5.21115 4.65614 4.01648 5.84152 3.07271C8.31139 1.02599 11.54 0.00262201 15.5273 0.00262201C18.0563 -0.0424475 20.5607 0.494068 22.837 1.56863C24.8789 2.52836 26.593 4.04189 27.7737 5.92751C28.9255 7.77546 29.5251 9.8999 29.5051 12.0618H23.6058C23.6058 9.59629 22.9117 7.68719 21.5234 6.3345C20.1351 4.98181 18.1364 4.30547 15.5273 4.30547C13.1543 4.30547 11.316 4.87368 10.0125 6.01009C8.70892 7.14651 8.05615 8.73808 8.05413 10.7848C8.04636 11.6016 8.23375 12.4089 8.60149 13.1429C8.96922 13.8769 9.50722 14.5175 10.1729 15.0139C11.5854 16.1503 13.7647 17.1668 16.7108 18.0634C21.3095 19.361 24.5966 20.9604 26.5721 22.8617C28.5476 24.7629 29.5364 27.2481 29.5384 30.3172C29.5384 33.5514 28.3095 36.1418 25.8517 38.0883C23.394 40.0347 20.0534 41.005 15.83 40.9991C13.2406 41.0248 10.6761 40.5057 8.31141 39.4773C6.13777 38.5619 4.26369 37.0827 2.89342 35.201C1.57242 33.3488 0.882084 31.1391 0.919934 28.8839H6.81917C6.81917 31.3494 7.62632 33.2683 9.24062 34.6407C10.8549 36.013 13.0514 36.7012 15.83 36.7051C18.4169 36.7051 20.3621 36.1379 21.6657 35.0034C22.9692 33.869 23.621 32.3256 23.621 30.3732" fill="white"/>
</svg>
