<svg width="80" height="128" viewBox="0 0 80 128" fill="none" xmlns="http://www.w3.org/2000/svg">
<g id="Serie_A_Logo" clip-path="url(#clip0_25_2209)">
<path id="Vector" d="M2.99418 127.5C1.83023 126.999 0.998836 126.504 0.5 126.013V125.683L2.16279 123.702C2.18421 123.679 2.20999 123.661 2.23858 123.649C2.26717 123.637 2.29795 123.631 2.32907 123.631C2.36018 123.631 2.39096 123.637 2.41955 123.649C2.44814 123.661 2.47392 123.679 2.49534 123.702C3.82557 124.692 5.1558 125.188 6.48603 125.188C8.14882 125.188 8.98021 124.527 8.98021 123.371C8.98021 122.546 8.47634 122.048 6.65231 121.718H5.82092C2.66162 121.217 0.998836 119.736 0.998836 117.094C0.981343 116.467 1.10687 115.845 1.36603 115.273C1.62519 114.701 2.01126 114.194 2.49534 113.792C3.32674 112.966 4.82325 112.471 6.48603 112.471C8.48138 112.471 10.313 112.971 11.6432 114.122C11.8095 114.122 11.8095 114.287 11.6432 114.452L10.313 116.434C10.1467 116.599 10.1467 116.599 9.9804 116.599C8.81393 115.773 7.64998 115.278 6.48603 115.278C5.1558 115.278 4.32441 116.103 4.32441 116.929C4.32441 117.93 5.1558 118.415 6.81859 118.58L7.4837 118.745C10.8118 119.246 12.4746 120.727 12.4746 123.371C12.4746 126.179 10.1467 127.995 6.31975 127.995C5.19255 127.991 4.07209 127.822 2.99418 127.495" fill="#002D71"/>
<path id="Vector_2" d="M14.6363 112.971C14.6363 112.806 14.6363 112.806 14.9688 112.806H24.7944C24.9607 112.806 24.9607 112.806 24.9607 112.971V115.283C24.9607 115.448 24.9607 115.613 24.7944 115.613H18.1281C17.9619 115.613 17.9619 115.613 17.9619 115.778V118.743C17.9615 118.765 17.9656 118.786 17.9738 118.807C17.9821 118.827 17.9943 118.845 18.0098 118.86C18.0253 118.876 18.0438 118.888 18.0641 118.896C18.0844 118.904 18.1062 118.908 18.1281 118.908H23.6179C23.7841 118.908 23.7841 118.908 23.7841 119.073V121.385C23.7841 121.55 23.7841 121.715 23.6179 121.715H17.9745V124.855C17.9745 125.02 17.9745 125.02 18.1407 125.02H24.7768C24.943 125.02 24.943 125.02 24.943 125.185V127.662C24.943 127.827 24.943 127.827 24.7768 127.827H14.9512C14.6187 127.827 14.6187 127.827 14.6187 127.662V112.964" fill="#002D71"/>
<path id="Vector_3" d="M36.0911 127.835C35.9249 127.835 35.7586 127.835 35.7586 127.67L33.0906 122.053H31.1003C31.0783 122.053 31.0565 122.057 31.0362 122.065C31.0159 122.073 30.9974 122.085 30.9819 122.101C30.9664 122.116 30.9542 122.134 30.9459 122.155C30.9377 122.175 30.9336 122.196 30.934 122.218V127.67C30.934 127.835 30.934 127.835 30.6014 127.835H27.7747C27.6084 127.835 27.6084 127.835 27.6084 127.67V112.971C27.6084 112.806 27.6084 112.806 27.7747 112.806H33.9295C35.3209 112.787 36.6748 113.255 37.7539 114.127C38.672 114.989 39.2099 116.176 39.2504 117.429C39.2504 119.411 38.0865 120.897 36.4237 121.723L39.583 127.67C39.583 127.67 39.583 127.835 39.2504 127.835H36.0911ZM33.7632 119.411C35.0935 119.411 35.9248 118.585 35.9248 117.429C35.9248 116.429 35.0935 115.613 33.7632 115.613H31.1003C30.934 115.613 30.934 115.613 30.934 115.778V119.243C30.9336 119.265 30.9377 119.287 30.9459 119.307C30.9542 119.327 30.9664 119.345 30.9819 119.361C30.9974 119.376 31.0159 119.388 31.0362 119.397C31.0565 119.405 31.0783 119.409 31.1003 119.408L33.7632 119.411Z" fill="#002D71"/>
<path id="Vector_4" d="M41.9084 112.971C41.9084 112.806 41.9084 112.806 42.0747 112.806H44.9065C45.0728 112.806 45.0728 112.806 45.0728 112.971V127.67C45.0728 127.835 45.0728 127.835 44.9065 127.835H42.0772C41.911 127.835 41.911 127.835 41.911 127.67V112.971" fill="#002D71"/>
<path id="Vector_5" d="M48.232 112.971C48.2316 112.949 48.2357 112.928 48.2439 112.907C48.2522 112.887 48.2644 112.869 48.2799 112.854C48.2954 112.838 48.3139 112.826 48.3342 112.818C48.3545 112.81 48.3763 112.806 48.3982 112.806H58.3775C58.3994 112.806 58.4212 112.81 58.4415 112.818C58.4618 112.826 58.4803 112.838 58.4958 112.854C58.5113 112.869 58.5235 112.887 58.5318 112.907C58.54 112.928 58.5441 112.949 58.5437 112.971V115.283C58.5264 115.408 58.4679 115.524 58.3775 115.613H51.7339C51.712 115.613 51.6902 115.617 51.6698 115.625C51.6495 115.633 51.6311 115.645 51.6155 115.661C51.6 115.676 51.5878 115.694 51.5796 115.715C51.5713 115.735 51.5673 115.756 51.5676 115.778V118.743L51.7339 118.908H57.2236C57.3899 118.908 57.5561 118.908 57.5561 119.073V121.385C57.5503 121.471 57.5133 121.551 57.4522 121.612C57.3911 121.673 57.3099 121.709 57.2236 121.715H51.5575V124.855C51.5572 124.877 51.5613 124.899 51.5695 124.919C51.5777 124.939 51.59 124.957 51.6055 124.973C51.621 124.988 51.6394 125 51.6598 125.008C51.6801 125.017 51.7019 125.021 51.7238 125.02H58.3775C58.3994 125.02 58.4212 125.024 58.4415 125.032C58.4618 125.04 58.4803 125.052 58.4958 125.068C58.5113 125.083 58.5235 125.102 58.5318 125.122C58.54 125.142 58.5441 125.164 58.5437 125.185V127.662C58.5441 127.684 58.54 127.706 58.5318 127.726C58.5235 127.746 58.5113 127.764 58.4958 127.78C58.4803 127.795 58.4618 127.807 58.4415 127.815C58.4212 127.824 58.3994 127.828 58.3775 127.827H48.3982C48.3763 127.828 48.3545 127.824 48.3342 127.815C48.3139 127.807 48.2954 127.795 48.2799 127.78C48.2644 127.764 48.2522 127.746 48.2439 127.726C48.2357 127.706 48.2316 127.684 48.232 127.662V112.964" fill="#002D71"/>
<path id="Vector_6" d="M70.851 112.971C70.851 112.806 70.851 112.806 71.1836 112.806H73.844C74.1766 112.806 74.1766 112.806 74.1766 112.971L79.5 127.67C79.5 127.835 79.5 127.835 79.1675 127.835H76.3382C76.1719 127.835 76.0057 127.835 76.0057 127.67L75.1743 125.028H69.6871L68.8557 127.67C68.8557 127.835 68.8557 127.835 68.5231 127.835H65.5276V127.67L70.851 112.971ZM70.6847 122.228H74.1766L72.5138 116.944H72.3475L70.6847 122.228Z" fill="#002D71"/>
<path id="Vector_7" d="M1.3313 101.079H27.1095V104.217H1.3313V101.079Z" fill="#009246"/>
<path id="Vector_8" d="M27.1096 101.079H52.7241V104.217H27.1096V101.079Z" fill="#E3E3E2"/>
<path id="Vector_9" d="M52.7241 101.079H78.5023V104.217H52.7241V101.079Z" fill="#CE2B37"/>
<path id="Vector_10" d="M39.9207 29.2173V70.5788H54.8883L39.9207 29.2173Z" fill="url(#paint0_linear_25_2209)"/>
<path id="Vector_11" d="M24.9429 70.5788H39.9205V29.2223L24.9429 70.5788Z" fill="url(#paint1_linear_25_2209)"/>
<path id="Vector_12" d="M78.1597 70.5788L39.9207 93.8465L54.8883 70.5788H78.1597Z" fill="url(#paint2_linear_25_2209)"/>
<path id="Vector_13" d="M39.9207 70.5788H54.8883L39.9207 93.8465V70.5788Z" fill="url(#paint3_linear_25_2209)"/>
<path id="Vector_14" d="M1.64893 70.5788L39.9207 93.8465L24.9431 70.5788H1.64893Z" fill="url(#paint4_linear_25_2209)"/>
<path id="Vector_15" d="M39.9205 93.8465V70.5788H24.9429L39.9205 93.8465Z" fill="url(#paint5_linear_25_2209)"/>
<path id="Vector_16" d="M78.1699 70.5763L47.7333 3.8147e-06H31.9318L1.66406 70.5763H24.9481L39.9157 29.2323L46.8742 48.3919H39.9157L35.925 60.2834H51.1698L54.8833 70.5763H78.1699Z" fill="#008FD7"/>
</g>
<defs>
<linearGradient id="paint0_linear_25_2209" x1="35.0028" y1="36.6054" x2="48.22" y2="72.84" gradientUnits="userSpaceOnUse">
<stop stop-color="#0C5EAD"/>
<stop offset="1" stop-color="#033B82"/>
</linearGradient>
<linearGradient id="paint1_linear_25_2209" x1="43.7248" y1="53.2531" x2="32.0609" y2="49.7434" gradientUnits="userSpaceOnUse">
<stop stop-color="#0C5EAD"/>
<stop offset="1" stop-color="#033B82"/>
</linearGradient>
<linearGradient id="paint2_linear_25_2209" x1="73.5367" y1="66.0928" x2="37.8276" y2="89.244" gradientUnits="userSpaceOnUse">
<stop stop-color="#0C5EAD"/>
<stop offset="1" stop-color="#033B82"/>
</linearGradient>
<linearGradient id="paint3_linear_25_2209" x1="48.8493" y1="68.0944" x2="35.7502" y2="90.9331" gradientUnits="userSpaceOnUse">
<stop stop-color="#0C5EAD"/>
<stop offset="1" stop-color="#033B82"/>
</linearGradient>
<linearGradient id="paint4_linear_25_2209" x1="6.84135" y1="66.4456" x2="41.4211" y2="88.8917" gradientUnits="userSpaceOnUse">
<stop stop-color="#0C5EAD"/>
<stop offset="1" stop-color="#033B82"/>
</linearGradient>
<linearGradient id="paint5_linear_25_2209" x1="33.1208" y1="81.5546" x2="41.9023" y2="73.0772" gradientUnits="userSpaceOnUse">
<stop stop-color="#0C5EAD"/>
<stop offset="1" stop-color="#033B82"/>
</linearGradient>
<clipPath id="clip0_25_2209">
<rect width="79" height="128" fill="white" transform="translate(0.5)"/>
</clipPath>
</defs>
</svg>
